<svg xmlns="http://www.w3.org/2000/svg" viewBox="0 0 1200 520" role="img" aria-labelledby="bg-title"><title id="bg-title">benchgraph</title>
<rect class="slab" x="128" y="112" width="944" height="124" rx="18" fill="#e5e7eb" fill-opacity="0.045"/>
<g class="edges" fill="none" stroke="#e5e7eb" stroke-opacity="0.28" stroke-width="2" stroke-linecap="round">
<line x1="147.9" y1="127.8" x2="234.7" y2="132.1"/>
<line x1="147.9" y1="127.8" x2="234.4" y2="172.2"/>
<line x1="151.8" y1="167.9" x2="234.8" y2="209.1"/>
<line x1="151.8" y1="167.9" x2="234.7" y2="132.1"/>
<line x1="151.8" y1="167.9" x2="331.5" y2="219.4"/>
<line x1="150.4" y1="212.4" x2="234.4" y2="172.2"/>
<line x1="150.4" y1="212.4" x2="234.8" y2="209.1"/>
<line x1="150.4" y1="212.4" x2="325.5" y2="169.7"/>
<line x1="234.7" y1="132.1" x2="331.5" y2="219.4"/>
<line x1="234.7" y1="132.1" x2="325.5" y2="169.7"/>
<line x1="234.7" y1="132.1" x2="425.7" y2="167.6"/>
<line x1="234.4" y1="172.2" x2="325.5" y2="169.7"/>
<line x1="234.4" y1="172.2" x2="329.1" y2="135.9"/>
<line x1="234.8" y1="209.1" x2="325.5" y2="169.7"/>
<line x1="234.8" y1="209.1" x2="329.1" y2="135.9"/>
<line x1="234.8" y1="209.1" x2="425.7" y2="167.6"/>
<line x1="329.1" y1="135.9" x2="420.9" y2="130.8"/>
<line x1="329.1" y1="135.9" x2="424.3" y2="211.5"/>
<line x1="325.5" y1="169.7" x2="425.7" y2="167.6"/>
<line x1="325.5" y1="169.7" x2="420.9" y2="130.8"/>
<line x1="325.5" y1="169.7" x2="507.7" y2="176.8"/>
<line x1="331.5" y1="219.4" x2="424.3" y2="211.5"/>
<line x1="331.5" y1="219.4" x2="425.7" y2="167.6"/>
<line x1="420.9" y1="130.8" x2="507.7" y2="176.8"/>
<line x1="420.9" y1="130.8" x2="506.2" y2="215.0"/>
<line x1="425.7" y1="167.6" x2="507.7" y2="176.8"/>
<line x1="425.7" y1="167.6" x2="506.2" y2="215.0"/>
<line x1="424.3" y1="211.5" x2="505.7" y2="127.4"/>
<line x1="424.3" y1="211.5" x2="506.2" y2="215.0"/>
<line x1="424.3" y1="211.5" x2="601.7" y2="130.5"/>
<line x1="505.7" y1="127.4" x2="594.7" y2="210.5"/>
<line x1="505.7" y1="127.4" x2="601.7" y2="130.5"/>
<line x1="505.7" y1="127.4" x2="689.4" y2="211.6"/>
<line x1="507.7" y1="176.8" x2="601.7" y2="130.5"/>
<line x1="507.7" y1="176.8" x2="600.6" y2="167.8"/>
<line x1="507.7" y1="176.8" x2="692.2" y2="131.1"/>
<line x1="506.2" y1="215.0" x2="600.6" y2="167.8"/>
<line x1="506.2" y1="215.0" x2="594.7" y2="210.5"/>
<line x1="601.7" y1="130.5" x2="687.8" y2="174.0"/>
<line x1="601.7" y1="130.5" x2="692.2" y2="131.1"/>
<line x1="600.6" y1="167.8" x2="689.4" y2="211.6"/>
<line x1="600.6" y1="167.8" x2="692.2" y2="131.1"/>
<line x1="594.7" y1="210.5" x2="689.4" y2="211.6"/>
<line x1="594.7" y1="210.5" x2="687.8" y2="174.0"/>
<line x1="692.2" y1="131.1" x2="776.9" y2="173.9"/>
<line x1="692.2" y1="131.1" x2="783.5" y2="134.4"/>
<line x1="687.8" y1="174.0" x2="776.9" y2="173.9"/>
<line x1="687.8" y1="174.0" x2="783.5" y2="134.4"/>
<line x1="687.8" y1="174.0" x2="872.8" y2="129.5"/>
<line x1="689.4" y1="211.6" x2="776.9" y2="173.9"/>
<line x1="689.4" y1="211.6" x2="783.5" y2="134.4"/>
<line x1="689.4" y1="211.6" x2="869.0" y2="217.1"/>
<line x1="783.5" y1="134.4" x2="872.8" y2="129.5"/>
<line x1="783.5" y1="134.4" x2="869.0" y2="217.1"/>
<line x1="783.5" y1="134.4" x2="955.8" y2="131.9"/>
<line x1="776.9" y1="173.9" x2="869.0" y2="217.1"/>
<line x1="776.9" y1="173.9" x2="872.8" y2="129.5"/>
<line x1="780.3" y1="218.5" x2="869.0" y2="217.1"/>
<line x1="780.3" y1="218.5" x2="872.8" y2="129.5"/>
<line x1="780.3" y1="218.5" x2="955.8" y2="131.9"/>
<line x1="872.8" y1="129.5" x2="963.2" y2="214.9"/>
<line x1="872.8" y1="129.5" x2="954.5" y2="175.0"/>
<line x1="872.8" y1="129.5" x2="1052.3" y2="174.1"/>
<line x1="875.8" y1="168.4" x2="954.5" y2="175.0"/>
<line x1="875.8" y1="168.4" x2="963.2" y2="214.9"/>
<line x1="869.0" y1="217.1" x2="955.8" y2="131.9"/>
<line x1="869.0" y1="217.1" x2="954.5" y2="175.0"/>
<line x1="955.8" y1="131.9" x2="1052.3" y2="174.1"/>
<line x1="955.8" y1="131.9" x2="1051.0" y2="213.5"/>
<line x1="954.5" y1="175.0" x2="1054.5" y2="129.8"/>
<line x1="954.5" y1="175.0" x2="1051.0" y2="213.5"/>
<line x1="963.2" y1="214.9" x2="1052.3" y2="174.1"/>
<line x1="963.2" y1="214.9" x2="1051.0" y2="213.5"/>
</g><g class="edges" fill="none" stroke="#e5e7eb" stroke-opacity="0.55" stroke-width="5" stroke-linecap="round">
<line x1="241.6" y1="250.0" x2="236.9" y2="317.3"/>
<line x1="236.9" y1="317.3" x2="239.5" y2="384.7"/>
<line x1="239.5" y1="384.7" x2="241.3" y2="452.0"/>
<line x1="964.1" y1="250.0" x2="960.4" y2="317.3"/>
<line x1="960.4" y1="317.3" x2="963.1" y2="384.7"/>
<line x1="963.1" y1="384.7" x2="958.7" y2="452.0"/>
<line x1="241.3" y1="452.0" x2="215.3" y2="470.0"/>
<line x1="241.3" y1="452.0" x2="267.3" y2="470.0"/>
<line x1="958.7" y1="452.0" x2="932.7" y2="470.0"/>
<line x1="958.7" y1="452.0" x2="984.7" y2="470.0"/>
</g><g class="nodes">
<circle cx="147.9" cy="127.8" r="12" fill="#22d3ee"/>
<circle cx="151.8" cy="167.9" r="9" fill="#34d399"/>
<circle cx="150.4" cy="212.4" r="9" fill="#38bdf8"/>
<circle cx="234.7" cy="132.1" r="9" fill="#60a5fa"/>
<circle cx="234.4" cy="172.2" r="9" fill="#a3e635"/>
<circle cx="234.8" cy="209.1" r="9" fill="#fbbf24"/>
<circle cx="329.1" cy="135.9" r="9" fill="#2dd4bf"/>
<circle cx="325.5" cy="169.7" r="9" fill="#818cf8"/>
<circle cx="331.5" cy="219.4" r="12" fill="#f472b6"/>
<circle cx="420.9" cy="130.8" r="9" fill="#fb7185"/>
<circle cx="425.7" cy="167.6" r="12" fill="#a78bfa"/>
<circle cx="424.3" cy="211.5" r="9" fill="#fb923c"/>
<circle cx="505.7" cy="127.4" r="12" fill="#22d3ee"/>
<circle cx="507.7" cy="176.8" r="9" fill="#34d399"/>
<circle cx="506.2" cy="215.0" r="9" fill="#38bdf8"/>
<circle cx="601.7" cy="130.5" r="9" fill="#60a5fa"/>
<circle cx="600.6" cy="167.8" r="9" fill="#a3e635"/>
<circle cx="594.7" cy="210.5" r="9" fill="#fbbf24"/>
<circle cx="692.2" cy="131.1" r="9" fill="#2dd4bf"/>
<circle cx="687.8" cy="174.0" r="9" fill="#818cf8"/>
<circle cx="689.4" cy="211.6" r="12" fill="#f472b6"/>
<circle cx="783.5" cy="134.4" r="9" fill="#fb7185"/>
<circle cx="776.9" cy="173.9" r="12" fill="#a78bfa"/>
<circle cx="780.3" cy="218.5" r="9" fill="#fb923c"/>
<circle cx="872.8" cy="129.5" r="12" fill="#22d3ee"/>
<circle cx="875.8" cy="168.4" r="9" fill="#34d399"/>
<circle cx="869.0" cy="217.1" r="9" fill="#38bdf8"/>
<circle cx="955.8" cy="131.9" r="9" fill="#60a5fa"/>
<circle cx="954.5" cy="175.0" r="9" fill="#a3e635"/>
<circle cx="963.2" cy="214.9" r="9" fill="#fbbf24"/>
<circle cx="1054.5" cy="129.8" r="9" fill="#2dd4bf"/>
<circle cx="1052.3" cy="174.1" r="9" fill="#818cf8"/>
<circle cx="1051.0" cy="213.5" r="12" fill="#f472b6"/>
<circle cx="241.6" cy="250.0" r="11" fill="#e5e7eb" fill-opacity="0.95"/>
<circle cx="236.9" cy="317.3" r="11" fill="#e5e7eb" fill-opacity="0.95"/>
<circle cx="239.5" cy="384.7" r="11" fill="#e5e7eb" fill-opacity="0.95"/>
<circle cx="241.3" cy="452.0" r="11" fill="#e5e7eb" fill-opacity="0.95"/>
<circle cx="964.1" cy="250.0" r="11" fill="#e5e7eb" fill-opacity="0.95"/>
<circle cx="960.4" cy="317.3" r="11" fill="#e5e7eb" fill-opacity="0.95"/>
<circle cx="963.1" cy="384.7" r="11" fill="#e5e7eb" fill-opacity="0.95"/>
<circle cx="958.7" cy="452.0" r="11" fill="#e5e7eb" fill-opacity="0.95"/>
</g>
<text x="600" y="382" text-anchor="middle" font-family="Space Grotesk, ui-sans-serif, system-ui, sans-serif" font-weight="700" font-size="96" letter-spacing="-3.5" fill="#f3f4f6">benchgraph</text>
</svg>